<?xml version="1.0" encoding="UTF-8"?>
<svg id="Layer_1" xmlns="http://www.w3.org/2000/svg" version="1.1" viewBox="0 0 1907.76 1907.76">
  <!-- Generator: Adobe Illustrator 30.3.0, SVG Export Plug-In . SVG Version: 2.1.3 Build 182)  -->
  <defs>
    <style>
      .st0 {
        font-size: 66.44px;
      }

      .st0, .st1, .st2 {
        isolation: isolate;
      }

      .st0, .st2 {
        font-family: PlayfairDisplay-Bold, 'Playfair Display';
        font-weight: 700;
      }

      .st0, .st2, .st3 {
        fill: #734c01;
      }

      .st4 {
        fill: #d4c6a2;
      }

      .st5 {
        fill: #a7824f;
      }

      .st6 {
        fill: #d5c7a3;
      }

      .st2 {
        font-size: 64.52px;
      }

      .st7 {
        fill: #241f21;
      }
    </style>
  </defs>
  <circle class="st7" cx="953.88" cy="953.88" r="928.85"/>
  <rect class="st3" x="-607.31" y="641.23" width="226.81" height="10.55"/>
  <rect class="st3" x="-577.26" y="658.46" width="166.71" height="10.55"/>
  <rect class="st3" x="-607.31" y="954.17" width="226.81" height="10.55"/>
  <rect class="st3" x="-577.26" y="936.93" width="166.71" height="10.55"/>
  <g>
    <rect class="st3" x="-428.55" y="681.23" width="10.6" height="243.72"/>
    <rect class="st3" x="-572.41" y="681.22" width="10.6" height="243.72"/>
    <g class="st1">
      <text class="st0" transform="translate(-524.59 822.68) scale(1.49 1)"><tspan x="0" y="0">F</tspan></text>
    </g>
    <g class="st1">
      <text class="st0" transform="translate(-534.41 748.85) scale(1.49 1)"><tspan x="0" y="0">O</tspan></text>
    </g>
    <g class="st1">
      <text class="st2" transform="translate(-526.39 897.08) scale(1.49 1)"><tspan x="0" y="0">Y</tspan></text>
    </g>
    <g>
      <polygon class="st3" points="-512.22 696.68 -512.22 681.23 -518.75 681.23 -518.75 699.49 -512.22 696.68"/>
      <polygon class="st3" points="-518.75 751.39 -518.75 769.49 -512.22 769.49 -512.22 753.83 -518.75 751.39"/>
      <polygon class="st3" points="-518.75 828.43 -518.75 844.42 -512.22 844.42 -512.22 828.5 -518.75 828.43"/>
    </g>
    <path class="st3" d="M-516.66,895.1c0-2.52,1.83-4.69,4.45-5.65v-14.67l-6.53-6.85v56.41h6.53v-23.6c-2.62-.96-4.45-3.13-4.45-5.65h0Z"/>
    <g>
      <polygon class="st3" points="-477.62 696.44 -477.62 680.99 -471.09 680.99 -471.09 699.25 -477.62 696.44"/>
      <polygon class="st3" points="-471.09 751.15 -471.09 769.25 -477.62 769.25 -477.62 753.59 -471.09 751.15"/>
      <polygon class="st3" points="-471.09 828.2 -471.09 844.18 -477.62 844.18 -477.62 828.27 -471.09 828.2"/>
    </g>
    <path class="st3" d="M-473.17,894.87c0-2.52-1.83-4.69-4.45-5.65v-14.67l6.53-6.85v56.41h-6.53v-23.6c2.62-.96,4.45-3.13,4.45-5.65h0Z"/>
  </g>
  <g>
    <polygon class="st4" points="442.77 637.28 438.86 645.6 361.79 608.56 367.47 596.13 434.58 596.02 392.5 543.52 398.45 531.31 475.98 568.6 471.78 577.09 406.77 546.19 452.16 604.35 376.68 604.6 442.77 637.28"/>
    <polygon class="st4" points="1034.83 299.42 1025.74 299.62 979.29 224.42 973.51 295.26 964.51 295.3 971.48 208.01 981.12 208.07 1026.47 281.8 1032.19 213.15 1041.69 213.2 1034.83 299.42"/>
    <path class="st4" d="M1323.95,348.1c0,24.78-20.09,44.87-44.87,44.87s-44.87-20.09-44.87-44.87,20.09-44.87,44.87-44.87,44.87,20.09,44.87,44.87ZM1314.07,348.55c0-19.48-15.79-35.27-35.27-35.27s-35.27,15.79-35.27,35.27,15.79,35.27,35.27,35.27,35.27-15.79,35.27-35.27Z"/>
    <path class="st4" d="M517.57,497.85c0,24.75-20.06,44.82-44.82,44.82s-44.82-20.06-44.82-44.82,20.06-44.82,44.82-44.82,44.82,20.06,44.82,44.82ZM507.3,498.4c0-19.48-15.79-35.28-35.28-35.28s-35.28,15.79-35.28,35.28,15.79,35.28,35.28,35.28,35.28-15.79,35.28-35.28Z"/>
    <path class="st4" d="M920.71,256.78c0,24.67-20,44.66-44.66,44.66s-44.66-20-44.66-44.66,20-44.66,44.66-44.66,44.66,20,44.66,44.66ZM911.44,256.51c0-19.39-15.72-35.11-35.11-35.11s-35.11,15.72-35.11,35.11,15.72,35.11,35.11,35.11,35.11-15.72,35.11-35.11Z"/>
    <polygon class="st4" points="603.53 419.71 552.82 349.53 560.74 343.47 582.99 374.35 623.2 345.45 600.91 314.54 608.77 308.51 659.48 378.98 651.48 384.77 628.67 353.34 588.45 382.21 611.28 413.69 603.53 419.71"/>
    <polygon class="st4" points="1456.03 537.11 1437.57 508.46 1412.25 525.38 1440.87 569.35 1433.57 574.33 1399.12 521.14 1471.5 473.93 1505.65 526.06 1498.24 530.68 1469.7 487.31 1444.88 503.6 1463.2 532.13 1456.03 537.11"/>
    <path class="st4" d="M671.47,342.05l2.62,29.64-9.36,4.44-8.19-93.67,10.79-5.19,71.03,60.11-9.49,5.07-21.7-18.89-35.7,18.5ZM699.69,317.33l-33.39-28.87,4.27,43.89,29.13-15.02Z"/>
    <polygon class="st4" points="1493.77 605.27 1478.77 574.27 1451.19 587.23 1474.05 634.68 1466.11 638.24 1439.09 582.19 1516.77 544.97 1543.44 601.21 1535.4 604.47 1513.15 557.63 1486.71 570.69 1501.5 601.43 1493.77 605.27"/>
    <path class="st5" d="M745.77,673.08l-142.3-11.57c-3.88-.3-7.06-.28-10.53-.94l27.25-2.02,127.09-10.37c4.21-.34,7.64,2.87,7.6,6.87l-.12,11.64c-.04,4.09-4.44,6.76-8.98,6.39Z"/>
    <path class="st4" d="M766.49,289.02l10.19,35-8.61,2.37-24.54-82.96,37.8-10.76c7.18-2.05,14.82-1.84,21.41,2.16,8.58,5.21,12.55,14.96,11.26,25.17-1.09,8.57-7.89,17.11-17.23,19.91l-30.27,9.11ZM765.15,280.61l28.3-8.48c9.04-2.71,13.12-11.98,10.79-19.92-2.48-8.48-10.96-13.38-19.81-10.84l-28.33,8.15,9.04,31.09Z"/>
    <path class="st5" d="M1168.5,672.56c-5.41.45-8.49-2.37-8.49-6.8v-11.76c.41-3.29,3.08-6.13,6.96-5.81l147.93,12.2-146.41,12.17Z"/>
    <path class="st4" d="M1192.34,270.64c-19.38,4.43-30.39,27.01-26.28,42.49,5.97,22.47,29.73,33.32,50.76,24.67l2.99,9.23c-6.97,2.16-13.37,3.07-21.08,2.85-21.48-.61-40-17-43-38.48-2.01-14.43,3.09-28.54,13.07-38.16,10.13-9.77,24.18-14.79,38.54-11.91,16.94,3.39,30.83,14.09,36.36,30.62l-8.76,3.58c-5.69-17.58-23.9-29.16-42.61-24.88Z"/>
    <path class="st4" d="M574.76,417.12l8.92-.03c.48,12.73-5.1,22.83-11.77,32.39-1.63,2.34-2.62,4.72-5.02,6.42-16.57,11.74-37.12,11.98-53.55-.09-17.62-12.94-23.43-37.07-12.96-56.38,8.56-15.78,23.98-25.72,42.09-25.09l-.1,9.63c-19.51-.94-37.9,14.17-38.66,34.52-.56,14.93,9.53,28.41,22.62,34.03,11.14,4.78,23.18,3.32,32.47-3.44,10.37-7.55,16.51-18.13,15.97-31.97Z"/>
    <polygon class="st4" points="1395.74 442.75 1417.97 468.61 1411.4 474.15 1389.02 448.42 1359.72 473.61 1353.37 465.49 1418.85 409.26 1459.14 456.48 1452.46 462.6 1418.77 423.18 1395.74 442.75"/>
    <polygon class="st4" points="1364.13 411.28 1358.14 418.01 1332.9 395.13 1307.16 423.7 1300.26 417.29 1358.11 352.59 1404.26 394.13 1398.14 400.78 1359.4 366.1 1338.98 388.36 1364.13 411.28"/>
    <polygon class="st4" points="1082.96 309.85 1073.31 307.96 1090.5 232.34 1060.26 225.5 1061.96 217.04 1131.81 233.07 1130.47 241.61 1100.02 234.72 1082.96 309.85"/>
    <rect class="st4" x="937.1" y="209.15" width="10.48" height="86.4" transform="translate(-4.86 18.89) rotate(-1.15)"/>
    <g>
      <path class="st4" d="M404.7,858.96c.85-3.85,1.2-6.06,1.07-9.95-5.79,4.85-7.64,10.47-11.25,16.94l-93.02,166.48c-3.13,5.59-9.91,8.51-15.92,8.19l-15.66-.83c-4.29-.23-7.2-3.59-7.02-8.32l6.88-182.92c-2.86,1.61-3.92,4.04-5.28,7.21-29.95,69.93-57.85,140.11-83.69,211.68-.93,2.57-4.17,6.22-6.43,6.18l-22.48-.35c-3.09-.05-6.13-3.37-5.21-6.51l4.31-14.67c33.79-86.4,69.69-171.47,107.11-256.32,2.57-5.83,6.73-6.11,12.4-6.22l24.63-.48c6.21-.12,9.94,5.35,9.01,11.02l-2.88,17.67-7.53,164.05c-.09,1.99,1.48,4.4,2.57,5.14l45.8-84.17,61.87-110.12c1.96-3.49,6.01-4.17,9.48-4.15l31.16.15c.88,0,2.56.57,3.16,1.04s1.01,2.74.79,3.78c-19.37,90.42-36.22,180.72-51.99,271.76-1.01,5.82-4.89,8.24-10.28,8.18l-20.55-.19c-1.47-.01-3.91-.41-4.68-1.3s-1.29-3.98-1.03-5.27l14.97-72.84,29.69-134.84Z"/>
      <path class="st4" d="M1135.37,886.07c2.76-6.7,7.74-7.84,13.98-7.81l22.04.11-37.52,110.65c-.3.88-.15,3.04.39,3.62s2.53,1.42,3.43,1.42c56.43.19,108.56-39.23,110.15-96.6.78-28.15-15.88-52.13-42.01-61.65-30.96-11.28-71.13-1.8-98.48,16.64-1.93,1.3-6.38.96-7.43-.87l-11.59-20c-1.24-2.14-.71-5.86,1.9-7.04l35.31-15.95c38.29-13.4,85.31-11.19,118.53,12.47,23.07,16.43,36.2,41.99,36.78,70.33.34,16.68-3.19,32.07-9.22,47.62-16.08,41.49-47.6,65.46-89.3,78.91-17.5,5.65-35.12,7.79-53.34,6.77-6.08-.34-8.7,4.16-10.15,8.81l-14.76,47.59c-.99,3.18-2.93,8.38-6.75,8.35l-23.1-.23c-3.17-.03-6.1-3.8-5.35-6.73l3.4-13.29,63.07-183.12Z"/>
      <path class="st4" d="M813.6,929.08c-10.05-10.79-29.85,3.55-39.38,16.66-11.35,15.63-20.05,32.34-27.56,50.23l-14.58,41.79c-1.62,4.64-5.22,7.44-9.97,7.23l-12.1-.55c-6.74-.31-9.54-6-9.15-13.64-18.57,13.25-38.55,18.85-60.54,18.29-14.19-.36-27.54-3.74-37.96-13.6-23.24-21.99-15.98-49.58-19.08-52.33-.95-.84-3.2-1.5-4.97-1.76-16.72-2.43-23.67,4.89-29.65,19.99-11.64,29.4-39.14,49.04-71.07,47.87-20.82-.76-37.71-15.34-41.97-35.62-3.16-15.05-2.4-30.11.58-45.11,4.32-21.7,15.93-39.7,31.8-54.59,14.23-13.35,32.05-19.24,51.61-16.37,26.17,3.84,38.25,24.7,39.74,50.38.25,4.24,2.79,8.09,7.31,8.62,12.12,1.43,21.74.13,26.75-10.75,14.56-31.61,44.28-55.78,79.21-46.39,14.61,3.93,24.27,16.7,27.65,31.19,2.17,9.29,1.4,18.35-.02,27.87-.45,3-3.92,6.26-7.02,6.27l-16.44.03c-5.65,0-8.48-5.72-7.75-10.91.99-7.09.72-14.12-2.33-20.42-3-6.2-9.13-8.73-15.75-7.16-8.25,1.95-14.31,7.56-19.09,14.3-10.77,15.18-15.32,32.53-14.79,51.16.51,18.02,13.41,31.51,32.25,31.45,17.69-.06,34.71-8.1,47.79-20.34,16.67-15.61,26.82-35.03,34.24-56.58l40.99-119.18c2.13-6.18,5.97-7.91,12.25-7.85l20.57.19c1.58-2.76,1.55-1.1.6.33l-36.8,103.43c7.38-4.32,11.26-10.45,17.39-15.05,11.59-8.69,25.67-13.36,40.07-10.88,11.93,2.06,20.71,11.04,22.43,22.92,1.29,8.88.49,17.83-3.18,26.06l-12.85,28.84c-5.8,13.01-18.07,34.23-10.14,41.09,2.75,2.38,7.29,3.5,10.79,1.39,18.97-11.4,33.02-26.1,37.93-47.93,6.13-27.25,19.12-51.85,43.42-66.29,15.43-9.17,34-9.95,49.82-1.3,6.92,3.79,12.34,11.9,13.88,10.38,2.98-2.94,2.65-11.76,10.27-11.75l26.11.03-22.8,66.24-10.73,40.32c-1.02,3.82,1.48,7.85,4.11,9.6,3.51,2.33,7.43,1.74,11.28-.52,12.45-7.87,22.23-18.69,30.05-31.28l2.5-1.62c.7-.45,2.57.84,3.17,1.44l11.28,11.19c2.73,2.71,2.87,6.27.45,9.36l-13.25,16.96c-8.84,11.32-21.69,18.66-34.91,24.21-18.62,7.82-33.7-1.4-44.27-18.64-6.73,7.4-13.56,13.56-22.3,17.25-17.82,7.52-37.4,3.11-49.28-12.16-3.69-4.74-6.24-10.11-9.19-15.99-18.55,18.45-36.53,37.65-63.17,29.89-22.54-6.56-23.31-34.75-15.23-52.85l12.31-27.56,10.59-25.65c1.62-3.93.93-8.78-1.93-11.85ZM527.32,951.05c-.04-6.61-1.63-13.21-4.68-18.6-4.51-7.96-13.28-11.1-21.82-8.18s-14.43,8.57-19.5,15.69c-10.52,14.76-16.83,32.11-16.92,50.38l1.31,13.2c.6,6.02,5.35,10.99,9.29,13.25,24.46,14.03,52.53-28.42,52.32-65.74ZM932.26,1015.45c18.2-11.63,27.84-42.91,34.91-63.88,2.45-7.28,2.36-15.73-4.17-20.85-9.93-7.79-24.78-7.58-34.76.6-11.29,9.26-19.56,21.93-22.24,36.2l-4.21,22.41c-1.28,6.83,1.53,14.46,4.99,20.37,5.34,9.13,16.21,11.06,25.47,5.14Z"/>
      <g>
        <path class="st4" d="M1393.07,983.91c-5.94,20.3-16.25,37.92-32.21,50.89-16.45,13.36-37.36,18.06-57.56,12.15-23.7-6.93-33.44-31.09-32.6-55.24,1.54-44.26,31.74-94.44,78.98-94.95,17.11-.18,31.74,7.13,40.28,21.86,12.41,21.4,1.12,35.32,17.13,37.49,15.95,2.17,28.65-6.25,34.04-21.16l9.23-25.53c2.09-5.78,6.96-9.23,13.36-9.07l19.77.52c.94,1.19,1.27,3.93.74,5.36l-16.03,43.49-13.56,44.94c-1.56,5.16-1.51,11.3-.99,16.4.6,5.89,5.95,8.65,10.91,7.44,7.94-1.94,13.08-6.82,18.64-12.05,17.43-16.38,28.33-36.1,35.96-58.68l14.23-42.06c1.19-3.51,4.76-5.01,8.11-5.01l23.83-.03-7.45,22.39c3.31-.97,5.25-2.6,7.31-4.95,10.99-12.5,25.74-19.72,42.54-20.27,16.79-.54,29.99,12.87,29.46,29.67-.41,13-5.18,24.68-10.5,36.6l-19.27,43.17c-1.5,3.36-.42,7.51,1.7,9.87,7.38,8.2,19.64-1.86,28.26-10.36,22.34-22.03,31.89-44.79,39.29-75.35,1.35-5.59-6.79-3.56-13.6-4.88-.57-1.34-.33-4.54.08-5.89l3.92-12.79c3.54-11.57,17.72.83,22.34-11.75l14.08-38.36c1.91-5.21,4.36-7.78,10.52-7.58l15.5.51c1.48.05,4.13,1.33,4.82,2.47s.99,4.56.53,5.84l-12.75,35.04c-.97,2.67-1.88,4.84-1.15,8.18l22.9-.27c1.42-.02,4.22.77,4.72,1.91s1.03,4.12.48,5.48l-7.2,17.69-12.22.74c-10.92.67-20.9,7.52-24.71,18.21-5.42,15.19-9.32,30.48-12.29,46.46-1.24,6.65-2.34,13.86.24,20.15,3.34,8.13,13.76,10.09,20.58,5.1,11.36-8.31,20.87-18.16,28.36-30.07,1.43-2.28,5.3-2.92,7.22-1.01l10.37,10.33c2.03,2.02,2.5,6.51.77,9.08-13.52,20.07-33.14,39.36-57.1,43.85-22.4,4.2-37.25-10.94-42.95-33.3l-24.41,22.58c-10.82,10-26.31,12.75-40.33,8.71-24.04-6.93-23.66-35.73-13.61-57.83l17.34-38.13c2.35-5.16,3.7-11,3.03-16.45-.81-6.65-6.45-10.46-12.86-8.96-8.95,2.09-16.95,6.93-23.05,14.16-23.25,27.59-36.31,62.2-46.31,96.7-1,3.44-3.98,7.55-7.45,7.52l-19.62-.15c-1.61-.01-4.36-.68-5.11-1.82-2.05-3.11,1.31-8.99-.18-8.62l-3.01.74c-11.34,10.59-26.02,16.07-41.31,13.07-9.89-1.48-17.59-7.7-20.35-17.43-2.09-7.37-2.76-15.45-1.52-23.21l4.46-27.86-26.46,2.35c-1.79.16-5.64-.36-6.32,1.94ZM1350.23,1000.86c12.93-18.83,18.59-42.2,12.02-64.09-3.27-10.92-14.5-15.41-24.23-11.42-7.2,2.94-12.27,7.37-16.98,13.47-14.15,18.3-21.07,41.25-18.13,64.44.94,7.42,6.18,12.97,11.24,15.38,14.4,6.87,26.86-4.35,36.08-17.78Z"/>
        <path class="st4" d="M1500.21,859.61c.37,13.17-9.18,25.35-21.93,27.47-9.67,1.61-16.98-3.93-18.27-13.22-2.07-15,9.16-29.57,24.21-29.08,9,.29,15.74,6.03,15.99,14.83Z"/>
      </g>
    </g>
    <g>
      <path class="st5" d="M1031.39,694.44c4.9,1.54,9.85,2.89,13.5,5.67.76,1.55-1.86,5.21-3.57,5.59l-23.87,5.31c-44.75,5.97-107.67,5.99-152.51.72-10.77-1.26-31.51-4.43-33.11-9.58-1.14-3.68,10.2-7.55,17.27-8.48l33.24-4.39c-22.25-18.12-36.46-43.75-36.56-72.18l-.11-31.29c-.01-3.61,2.72-8.04,6.49-8.93,27.52-6.47,60.17-4.13,85.83,8.67,24.56-12.91,60.9-14.64,87.01-8.39,6.04,1.45,6.46,9.85,5.6,16.03,15.08-5.2,31.83-2.14,40.6,11.21,9.33,14.2,8.35,32.75-4.06,44.23-6.31,5.83-14.44,8.83-22.9,9.23-5.78.28-10.24-4.21-10.3-9.24-.08-6.01,4.5-9.73,10.7-9.68,6.34.05,12.59-4.04,14.11-10.29,1.65-6.8-1.59-13.31-7.1-17.16-8.31-3.73-17.67.16-20.87,8.79-2.34,27.38-15.5,51-37.27,68.81l37.89,5.34ZM963.87,656.51l-4.28-16.1c-13.19-36.85-51.97-49.81-89.58-45.63,5.58,10.64,13.01,20.12,23.88,25.68l30.39,11.63c16.5,6.31,26.13,10.32,39.6,24.43ZM992.69,607.9c5.71-3.6,10.22-7.79,13.88-13.08-16.99-1.94-33.12-.52-49.29,4.86,7.23,6.85,12.73,15.03,17.29,23.36,5.69-5.96,11.37-10.71,18.12-15.14ZM986.33,666.88c15.31-14.03,23.01-33.34,23.6-53.41l.27-9.35-15.74,20.73c-5.56,7.33-11.38,16.45-10.17,26.01l2.04,16.03ZM918.12,653.61l-20.26-9.91c-14.85-7.27-25.87-18.97-33.44-34.73-2.3,39.59,27.4,74.9,67.85,78.01l10.11.78c3.4.26,7.46-.68,11.77-1.82-5.86-17.55-19.28-25.54-36.03-32.33Z"/>
      <path class="st5" d="M939.12,568.51c2.97-10.08,4.7-20.34-1.35-28.96l-8.44-12.02c-5.63-8.02-11.9-15.75-14.23-25.31-2.24-9.23.78-18.21,8.43-23.34l14.72-7.06-9.03,11.82c-2.91,3.81-1.24,10.55,1.47,14.23l14.42,19.62c10.2,16.28,9.26,37.71-5.99,51.02Z"/>
      <path class="st5" d="M971.43,519.12c-.47,8.27-3.04,15.91-9.13,21.03,3.85-10.39,2.42-18.03-3.18-25.84l-10.54-14.68c-3.99-5.55-6.19-13.4-3.5-19.77,2.94-6.97,10.27-11.29,17.01-12.46-2.9,4.27-6.73,8.01-7.92,13.05-1.49,6.31,14.77,17.11,17.72,30.7l-.45,7.98Z"/>
    </g>
    <g>
      <polygon class="st4" points="979.52 1699.75 978.36 1665.32 942.63 1616.11 941.89 1624.13 910.54 1622.45 905.98 1699.74 895.86 1699.54 900.48 1621.27 869.68 1619.6 869.64 1610.63 941.93 1615.2 953.49 1615.11 983.18 1656 1009.21 1612.95 1020.66 1613 988.45 1665.32 989.53 1699.66 979.52 1699.75"/>
      <path class="st4" d="M1229.05,1622.52c0,24.69-20.01,44.7-44.7,44.7s-44.7-20.01-44.7-44.7,20.01-44.7,44.7-44.7,44.7,20.01,44.7,44.7ZM1218.19,1623.49c0-19.41-15.73-35.14-35.14-35.14s-35.14,15.73-35.14,35.14,15.73,35.14,35.14,35.14,35.14-15.73,35.14-35.14Z"/>
      <polygon class="st4" points="1386.08 1532.29 1403.6 1557.62 1446.89 1528.05 1451.79 1535.38 1399.73 1570.96 1350.85 1499.62 1402.13 1464.52 1407.11 1471.74 1364.17 1500.89 1381.07 1525.14 1409.01 1505.6 1414 1512.97 1386.08 1532.29"/>
      <path class="st4" d="M452.03,1526.6c-8.33-.43-14.71-4.12-21.2-8.21-1.95-1.23-4.7-2.61-6.28-4.26-8.34-8.65-12.72-19.55-13.73-31.74l9.62-1.08c.73,15.11,9.15,28.42,22.9,34.44,7.19,3.15,15.27,2.11,20.41-3.59,4.2-4.65,5.26-11.33,1.3-16.18l-11.38-13.94c-5.25-6.43-11.44-12.08-13.22-20.57-1.95-9.34,4-18.37,12.89-22.25,8.71-3.81,18.83-1.4,26.86,3.8,11.94,7.73,19.33,19.78,23.47,33.22l-9.08,2.64c-3.56-19.36-23.75-39.2-38.09-30.12-3.52,2.23-7.21,7.04-6.18,12.12,1.09,5.38,5.26,9.71,8.76,13.72l13.17,15.1c5.06,5.8,6.81,14.17,4.13,21.21-3.94,10.33-12.93,16.26-24.34,15.67Z"/>
      <polygon class="st4" points="597.97 1579.09 567.63 1563.6 553.45 1590.65 599.7 1614.67 595.56 1622.54 540.83 1594.06 581.11 1516.58 635.76 1545.37 631.73 1553.35 585.39 1529.3 571.72 1555.69 602.12 1571.19 597.97 1579.09"/>
      <polygon class="st4" points="1473.45 1465.42 1447.32 1487.07 1466.93 1510.19 1507.11 1476.28 1512.5 1483.05 1465.05 1523.39 1409.9 1457.84 1457.42 1417.8 1463 1424.38 1422.68 1457.94 1441.76 1480.39 1468.14 1458.74 1473.45 1465.42"/>
      <path class="st4" d="M783.15,1656.18l-39.16-9.06-17.34,23.56-9.36-2.16,54.79-76.04,11.4,2.75,14.37,92.04-10.72-2.47-3.99-28.62ZM782.48,1647.12l-6.84-43.29-25.07,35.56,31.91,7.73Z"/>
      <path class="st4" d="M522.09,1538.69l-23.81-15.73-19.98,30.37-8.52-5.36,47.2-72.64,35.56,23.59c7.41,4.92,11.14,14.13,10.35,22.53-.73,7.79-5.63,16.21-13.35,19.8-8.9,4.14-19.13,2.94-27.45-2.56ZM529.9,1532.71c8.54,5.45,18.1.33,22.02-7.61,3.7-7.5.71-16.47-7.04-21.54l-23.74-15.51-18.27,27.41,27.03,17.25Z"/>
      <path class="st4" d="M638.02,1626.34c9.55,11.19,30.2,15.38,42.91,8.09l3.46,8.75c-12.32,5.11-25.32,4.68-38.39.28-22.52-7.58-33.08-33.6-25.01-55.79,9.4-25.85,37.94-37.03,62.4-24.72,10.08,5.08,19.74,13.28,23.04,24.39l-8.58,4.28c-3.81-9.73-9.85-16.74-18.48-20.86-18.46-8.82-38.37-1.59-46.82,16.85-6.03,13.17-4.46,27.1,5.47,38.72Z"/>
      <path class="st4" d="M1105.41,1679.48c10.95-2.15,20.11-7.54,25.38-16.92l7.74,5.18c-8.39,13.75-22.86,20.66-38.72,20.89-12.98.19-23.78-4.04-32.76-13.17-6.4-6.5-10.27-13.66-12.02-22.89-3.56-18.8,3.81-36.48,20.75-46.6,10.98-6.56,25.59-8.44,38.18-4.38l13.8,6.47-5.35,8.33c-9.11-7.29-20.52-8.82-31.61-6.03-20.6,5.18-31.37,26.11-24.16,45.99,5.78,15.93,21.33,26.56,38.77,23.13Z"/>
      <polygon class="st4" points="1283.94 1589.21 1252.56 1602.9 1267.95 1638.43 1258.28 1642.93 1223.86 1563.76 1280.92 1538.9 1284.48 1546.85 1237.14 1567.36 1248.81 1594.97 1280.38 1581.33 1283.94 1589.21"/>
      <polygon class="st4" points="1349.78 1555.99 1320.12 1572.5 1339.03 1606.42 1330.71 1610.88 1288.45 1535.08 1342.82 1505.02 1346.94 1512.97 1301.25 1538.19 1315.79 1564.58 1345.53 1548.13 1349.78 1555.99"/>
      <polygon class="st4" points="874.53 1688.52 873.25 1697.47 812.84 1689.45 824.32 1603.93 833.9 1604.91 823.58 1681.58 874.53 1688.52"/>
      <rect class="st4" x="669.93" y="1615.82" width="86.52" height="10.51" transform="translate(-1047.22 1814.72) rotate(-72.53)"/>
    </g>
    <g>
      <polygon class="st5" points="819.39 1335.19 811.96 1335.14 769.45 1277.7 769.13 1335.79 761.44 1335.49 761.43 1264.36 769.84 1264.32 811.64 1320.62 811.88 1264.31 819.38 1264.34 819.39 1335.19"/>
      <path class="st5" d="M1159.92,1329.3c-5.25-4.83-6.96-11.57-5.14-17.88,1.99-6.89,7.87-11.26,14.33-13.58-4.41-2.84-8.56-5.25-10.9-9.31-3.81-6.63-1.66-15.98,4.76-20.27,8.86-5.93,20.98-6.17,29.93-1.01,6.11,3.53,9.18,9.99,8.36,16.41-.8,6.27-5.65,10.95-12.67,14.09,7.28,1.97,12.52,7.05,14.47,13.69,2.12,7.23-.8,14.43-6.93,19.28-10.5,8.32-26.04,7.95-36.21-1.41ZM1194.97,1285.87c1.53-2.66,1.04-6.77-.69-9.06-5.34-7.03-15.14-9.23-22.67-5.06-4,2.21-7.02,5.57-7.39,9.83-.35,3.91,2.57,8.12,6.13,10.25,8.69,5.2,19.2,3.49,24.63-5.96ZM1190.51,1327.45c4.54-2.38,7.01-6.96,7.09-11.1.08-4.4-2.16-8.73-6.32-11.47-6.53-4.29-16.04-4.24-22.55.03-4.24,2.79-6.44,6.93-6.26,11.46.15,3.81,2.34,8,6.14,10.52,6.22,4.14,14.91,4.23,21.91.55Z"/>
      <path class="st5" d="M726.84,1318.98c-2.98,12.52-18.45,17.79-30.72,16.86-9.92-.75-17.47-5.79-25.23-12.73l5.36-5.74c9.42,10.61,24.04,14.87,36.33,8.74,4.71-2.35,7.28-7.12,7.01-11.65-.29-4.88-3.59-9.55-9.03-10.67l-18.48-3.82c-6.88-1.42-14.2-3.81-17.5-10.57-2.39-4.89-1.77-12.39.89-17.12,8.45-15.01,36.04-12.58,50.79-1.07l-4.58,6.55c-11.83-8.38-30.49-13.28-38.32-2.47-1.8,2.48-2.83,6.53-1.93,9.35.77,2.39,3.96,5.81,7.08,6.45l21.12,4.32c4.63.95,9.87,2.7,13.17,6.06,4.53,4.61,5.5,11.38,4.04,17.53Z"/>
      <polygon class="st5" points="943.71 1303 915.72 1303.01 915.76 1327.69 959.24 1327.71 959.29 1334.82 907.94 1334.89 907.94 1264.3 958.46 1264.28 958.47 1271.31 915.74 1271.29 915.74 1295.65 943.73 1295.68 943.71 1303"/>
      <path class="st5" d="M1111.97,1322.68c-5.34,10.06-15.55,14.68-25.44,14-10.69-.73-19.1-7.22-23.26-17.64-5.08-12.72-5.03-28.09.88-40.47,4.94-10.34,14.65-15.75,25.26-15.46s19.92,6.62,24.27,17.61c5.17,13.08,5.17,29.01-1.7,41.96ZM1105.19,1319.79c6.93-13.17,6.59-29.17-.96-41.41-3.79-6.15-10.12-7.99-16.95-7.88-5.45.09-12.07,3.15-15.28,8.95-6.77,12.21-6.7,26.95-.82,39.55,3.1,6.65,9.77,10.19,16.44,10.48s13.9-2.73,17.56-9.69Z"/>
      <path class="st5" d="M891.01,1319.04l5.32,5.19c-13.97,15.26-40.45,16.92-54.61,1.48-11.65-12.71-14.37-31.17-4.61-45.8,13.57-20.34,41.28-22.65,59.9-5.55l-5.11,6.33c-8.82-8.86-22.3-13.18-33.98-8.26-11.36,4.78-18.24,15-18.36,26.43-.12,11.87,6.77,22.61,18.32,27.34,11.29,4.63,24.87,1.65,33.13-7.15Z"/>
      <path class="st5" d="M1005.12,1336.11c-1.81-4.48.22-6.86,2.85-9.75l25.06-27.56c2.98-3.28,6.1-6.96,7.52-11.01,2.37-6.74-.71-13.37-7.15-15.71-9.47-3.45-18.8.43-25.52,7.65l-4.51-5.32c10.61-11.83,31.6-14.56,42.41-2.61,5.94,6.56,5.16,17.32-1.07,24.26l-29.87,33.29,35.89.22v6.51s-45.62.04-45.62.04Z"/>
      <path class="st5" d="M1135.17,1335.83l-.03-62.97-11.98,4.98.23-7.47,12.15-5.29c1.61-.7,4.93-.81,6.74-.7v70.92s-7.11.54-7.11.54Z"/>
      <circle class="st6" cx="624.17" cy="1296.46" r="13.96"/>
      <circle class="st6" cx="1248.76" cy="1296.45" r="13.97"/>
      <rect class="st5" x="737.84" y="1264.28" width="8.39" height="71.26"/>
      <rect class="st5" x="977.83" y="1288.78" width="7.06" height="35.89" transform="translate(-326.47 2286.62) rotate(-89.94)"/>
    </g>
  </g>
</svg>